<svg xmlns="http://www.w3.org/2000/svg" viewBox="0 0 496 496" style="enable-background:new 0 0 496 496" xml:space="preserve"><path style="fill:#143647" d="M332 244c0 4-3.2 8-8 8H133.6c-4 0-37.6-16.8-37.6-21.6l30.4-49.6c3.2-5.6 8.8-8 12.8-8h147.2c4 0 8 3.2 8 8L332 244z"/><path style="fill:#f7dd6d" d="M19.2 280c0 2.4-1.6 4-4 4s-4-1.6-4-4v-13.6c0-2.4 1.6-4 4-4s4 1.6 4 4V280z"/><path style="fill:#e2c447" d="M15.2 262.4c2.4 0 4 1.6 4 4V280c0 2.4-1.6 4-4 4"/><path style="fill:#2a5a77" d="M142.4 236.8c0 13.6-87.2 24-92.8 24-5.6 0-9.6-11.2-9.6-24s-.8-76.8 4.8-76.8c4.8 0 97.6 64 97.6 76.8z"/><path style="fill:#143647" d="M113.6 236.8c0 13.6-58.4 24-64 24s-17.6 8-17.6-5.6 7.2-96 12.8-96c4.8.8 68.8 64.8 68.8 77.6z"/><path style="fill:#1d6487" d="M493.6 287.2c5.6-54.4-160.8-61.6-291.2-61.6-129.6 0-188 18.4-194.4 61.6h485.6z"/><path style="fill:#143647" d="M493.6 287.2c-6.4-43.2-159.2-52.8-289.6-52.8-129.6 0-189.6 8.8-196 52.8h485.6z"/><path style="fill:#143647" d="M494.4 296.8c0 4-3.2 8-8 8H12c-4 0-8-3.2-8-8V292c0-4 3.2-8 8-8h475.2c4 0 8 1.6 8 5.6v7.2h-.8z"/><path style="fill:#081f28" d="M494.4 303.2c0 4-3.2 6.4-6.4 6.4H10.4c-4 0-6.4-3.2-6.4-6.4 0-4 3.2-6.4 6.4-6.4h476.8c4 0 7.2 2.4 7.2 6.4z"/><path style="fill:#081f28" d="M496 309.6c0 2.4-2.4 4.8-4.8 4.8H4.8c-2.4-.8-4.8-2.4-4.8-4.8s2.4-4.8 4.8-4.8H492c1.6 0 4 2.4 4 4.8z"/><path d="M56 301.6c0-20 16.8-36.8 36.8-36.8s36.8 16.8 36.8 36.8"/><path style="fill:#2a5a77" d="M130.4 301.6H128c0-19.2-16-35.2-35.2-35.2s-35.2 16-35.2 35.2h-3.2c0-20.8 16.8-38.4 38.4-38.4 20.8 0 37.6 17.6 37.6 38.4z"/><circle style="fill:#203547" cx="92.8" cy="303.2" r="32.8"/><path style="fill:#122130" d="M116 280c12.8 12.8 12.8 33.6 0 47.2-12.8 12.8-33.6 12.8-47.2 0"/><circle style="fill:#081f28" cx="92.8" cy="303.2" r="20.8"/><path style="fill:#2a5a77" d="M107.2 288c8 8 8 21.6 0 29.6s-21.6 8-29.6 0"/><circle style="fill:#2a5a77" cx="92.8" cy="303.2" r="18.4"/><path style="fill:#143647" d="M105.6 290.4c7.2 7.2 7.2 18.4 0 25.6s-18.4 7.2-25.6 0"/><path style="opacity:.2;fill:#888f91;enable-background:new" d="M100.8 303.2c0 4.8-4 9.6-8.8 9.6s-8.8-4.8-8.8-9.6 4-8.8 8.8-8.8c4.8 0 8.8 4 8.8 8.8z"/><circle style="fill:#143647" cx="92.8" cy="303.2" r="8.8"/><path style="fill:#2a5a77" d="M92.8 294.4c4.8 0 8.8 4 8.8 8.8s-4 8.8-8.8 8.8"/><path style="fill:#666e70" d="M92.8 284.8h-2.4c0 2.4 1.6 4.8 2.4 4.8s2.4-1.6 2.4-4.8h-2.4z"/><path style="fill:#535a5b" d="M92.8 289.6c.8 0 2.4-1.6 2.4-4.8h-2.4"/><path style="fill:#666e70" d="M90.4 320.8h4.8c0-2.4-1.6-4.8-2.4-4.8-1.6.8-2.4 2.4-2.4 4.8z"/><path style="fill:#535a5b" d="M95.2 320.8c0-2.4-1.6-4.8-2.4-4.8"/><path style="fill:#666e70" d="M77.6 292c2.4 1.6 4 2.4 4.8 1.6s0-3.2-1.6-4.8l-3.2 3.2z"/><path style="fill:#535a5b" d="M83.2 293.6c.8-.8 0-3.2-1.6-4.8"/><path style="fill:#666e70" d="M107.2 314.4c-2.4-1.6-4-2.4-4.8-1.6s0 2.4 1.6 4.8c.8-.8 1.6-.8 1.6-1.6s.8-1.6 1.6-1.6z"/><path style="fill:#535a5b" d="M105.6 316c.8-.8.8-1.6 1.6-1.6-2.4-1.6-4-2.4-4.8-1.6"/><path style="fill:#666e70" d="M74.4 305.6c2.4 0 4.8-1.6 4.8-2.4s-1.6-2.4-4.8-2.4v4.8z"/><path style="fill:#535a5b" d="M79.2 303.2c0-.8-1.6-2.4-4.8-2.4v2.4"/><path style="fill:#666e70" d="M105.6 303.2c0 .8 1.6 2.4 4.8 2.4v-4.8c-2.4 0-4.8.8-4.8 2.4z"/><path style="fill:#535a5b" d="M110.4 300.8c-2.4 0-4.8 1.6-4.8 2.4"/><path style="fill:#666e70" d="M77.6 314.4c.8 1.6 2.4 2.4 3.2 3.2 1.6-2.4 2.4-4 1.6-4.8 0-.8-2.4 0-4.8 1.6z"/><path style="fill:#535a5b" d="M81.6 317.6c1.6-2.4 2.4-4 1.6-4.8"/><path style="fill:#666e70" d="M103.2 288.8c-1.6 2.4-2.4 4-1.6 4.8s3.2 0 4.8-1.6c-.8-1.6-1.6-2.4-3.2-3.2z"/><path style="fill:#535a5b" d="M103.2 288.8c-1.6 2.4-2.4 4-1.6 4.8"/><path d="M362.4 301.6c0-20 16.8-36.8 36.8-36.8s36.8 16.8 36.8 36.8"/><path style="fill:#2a5a77" d="M437.6 301.6h-3.2c0-19.2-16-35.2-35.2-35.2s-35.2 16-35.2 35.2h-3.2c0-20.8 16.8-38.4 38.4-38.4 20.8 0 38.4 17.6 38.4 38.4z"/><circle style="fill:#203547" cx="399.2" cy="303.2" r="32.8"/><path style="fill:#122130" d="M422.4 280c12.8 12.8 12.8 33.6 0 47.2-12.8 12.8-33.6 12.8-47.2 0"/><circle style="fill:#081f28" cx="399.2" cy="303.2" r="20.8"/><path style="fill:#2a5a77" d="M413.6 288c8 8 8 21.6 0 29.6s-21.6 8-29.6 0"/><circle style="fill:#2a5a77" cx="399.2" cy="303.2" r="18.4"/><path style="fill:#143647" d="M412 290.4c7.2 7.2 7.2 18.4 0 25.6s-18.4 7.2-25.6 0"/><path style="opacity:.2;fill:#888f91;enable-background:new" d="M408 303.2c0 4.8-4 9.6-8.8 9.6s-8.8-4.8-8.8-9.6 4-8.8 8.8-8.8c4.8 0 8.8 4 8.8 8.8z"/><circle style="fill:#143647" cx="399.2" cy="303.2" r="8.8"/><path style="fill:#2a5a77" d="M399.2 294.4c4.8 0 8.8 4 8.8 8.8s-4 8.8-8.8 8.8"/><path style="fill:#666e70" d="M399.2 284.8h-2.4c0 2.4 1.6 4.8 2.4 4.8s2.4-1.6 2.4-4.8h-2.4z"/><path style="fill:#535a5b" d="M399.2 289.6c.8 0 2.4-1.6 2.4-4.8h-2.4"/><path style="fill:#666e70" d="M396.8 320.8h4.8c0-2.4-1.6-4.8-2.4-4.8-.8.8-2.4 2.4-2.4 4.8z"/><path style="fill:#535a5b" d="M401.6 320.8c0-2.4-1.6-4.8-2.4-4.8"/><path style="fill:#666e70" d="M384.8 292c2.4 1.6 4 2.4 4.8 1.6s0-3.2-1.6-4.8c-.8.8-2.4 1.6-3.2 3.2z"/><path style="fill:#535a5b" d="M389.6 293.6c.8-.8 0-3.2-1.6-4.8"/><path style="fill:#666e70" d="M413.6 314.4c-2.4-1.6-4-2.4-4.8-1.6s0 2.4 1.6 4.8c.8-.8 1.6-.8 1.6-1.6.8-.8.8-1.6 1.6-1.6z"/><path style="fill:#535a5b" d="M412 316c.8-.8.8-1.6 1.6-1.6-2.4-1.6-4-2.4-4.8-1.6"/><path style="fill:#666e70" d="M380.8 305.6c2.4 0 4.8-1.6 4.8-2.4s-1.6-2.4-4.8-2.4v4.8z"/><path style="fill:#535a5b" d="M385.6 303.2c0-.8-1.6-2.4-4.8-2.4v2.4"/><path style="fill:#666e70" d="M412.8 303.2c0 .8 1.6 2.4 4.8 2.4v-4.8c-3.2 0-4.8.8-4.8 2.4z"/><path style="fill:#535a5b" d="M416.8 300.8c-2.4 0-4.8 1.6-4.8 2.4"/><path style="fill:#666e70" d="M384.8 314.4c.8 1.6 2.4 2.4 3.2 3.2 1.6-2.4 2.4-4 1.6-4.8-.8-.8-3.2 0-4.8 1.6z"/><path style="fill:#535a5b" d="M388 317.6c1.6-2.4 2.4-4 1.6-4.8"/><path style="fill:#666e70" d="M410.4 288.8c-1.6 2.4-2.4 4-1.6 4.8s3.2 0 4.8-1.6c-.8-1.6-2.4-2.4-3.2-3.2z"/><path style="fill:#535a5b" d="M410.4 288.8c-1.6 2.4-2.4 4-1.6 4.8"/><path style="fill:#2a5a77" d="M55.2 262.4h-40V276zM450.4 253.6s-24-13.6-92 4c0 0 49.6-15.2 68.8-14.4 19.2 1.6 23.2 10.4 23.2 10.4z"/><ellipse style="fill:#143647" cx="51.2" cy="194.4" rx="24" ry="6.4"/><ellipse style="fill:#143647" cx="48" cy="212" rx="24" ry="6.4"/><ellipse style="fill:#143647" cx="44.8" cy="229.6" rx="24" ry="6.4"/><path style="fill:#51859b" d="M293.6 182.4H212c-4 0-8 3.2-8 8l15.2 28.8c2.4 4 9.6 8 13.6 8h88l-27.2-44.8z"/><path style="fill:#77acbf" d="M296.8 227.2h24.8L312 212zM293.6 184l-43.2 43.2h28l26.4-26.4-11.2-18.4h-2.4zM221.6 182.4H212c-4 0-8 3.2-8 8l3.2 6.4 14.4-14.4zM244 182.4l-28.8 28.8 4 8s0 .8.8.8l37.6-37.6H244z"/><path style="fill:#1d6487" d="M191.2 259.2c0 1.6-1.6 3.2-3.2 3.2h-24.8c-1.6 0-3.2-1.6-3.2-3.2s1.6-3.2 3.2-3.2H188c2.4 0 3.2 1.6 3.2 3.2zM204.8 272c0 1.6-1.6 3.2-3.2 3.2h-24.8c-1.6 0-3.2-1.6-3.2-3.2s1.6-3.2 3.2-3.2h24.8c2.4 0 3.2 1.6 3.2 3.2zM218.4 284.8c0 1.6-1.6 3.2-3.2 3.2h-24.8c-1.6 0-3.2-1.6-3.2-3.2s1.6-3.2 3.2-3.2H216c1.6 0 2.4 1.6 2.4 3.2z"/></svg>